<?xml version="1.0" encoding="iso-8859-1"?>
<!-- Generator: Adobe Illustrator 19.0.0, SVG Export Plug-In . SVG Version: 6.00 Build 0)  -->
<svg version="1.1" id="Capa_1" xmlns="http://www.w3.org/2000/svg" xmlns:xlink="http://www.w3.org/1999/xlink" x="0px" y="0px"
	 viewBox="0 0 512 512" style="enable-background:new 0 0 512 512;" xml:space="preserve">
<path style="fill:#E4EAF8;" d="M366.659,114.207c-1.736-1.059-3.734-1.588-5.622-1.588c-4.002,0-33.789,0-69.484,0h-36.8
	c-11.074,0-22.084,0-32.525,0h-36.8c-15.837,0-26.887,0-29.223,0c-5.255,0-9.769,3.81-10.655,8.985
	c-0.177,1.03-3.271,80.914,12.62,141.787c22.253,95.686,19.683,160.599,19.683,237.244c0,6.276,5.088,11.365,11.364,11.365
	c15.411,0,125.23,0,138.809,0c6.277,0,11.365-5.088,11.365-11.365c0-74.18-2.871-140.265,19.682-237.244
	c14.113-54.06,12.788-115.205,12.788-139.949C371.86,119.527,369.773,116.108,366.659,114.207z"/>
<path style="fill:#D8DCE5;" d="M198.457,500.635c0-76.645,2.571-141.558-19.683-237.244
	c-14.113-54.06-12.788-115.205-12.788-139.949c0-5.911,4.822-10.823,10.823-10.823c-11.162,0-18.72,0-20.605,0
	c-5.255,0-9.769,3.81-10.655,8.985c-0.177,1.03-3.271,80.914,12.62,141.787c22.253,95.686,19.683,160.599,19.683,237.244
	c0,6.276,5.088,11.365,11.364,11.365c3.254,0,10.727,0,20.605,0C203.544,512,198.457,506.912,198.457,500.635z"/>
<path style="fill:#FFC850;" d="M370.328,190.584c0.001-0.012,0.002-0.024,0.003-0.036H222.228v37.881c0,10.12-8.28,18.4-18.4,18.4
	s-18.4-8.28-18.4-18.4v-37.881H146.91c0.001,0.012,0.002,0.024,0.003,0.036c7.358,93.376,31.338,99.078,31.022,274.876h161.35
	C338.828,290.487,362.972,283.911,370.328,190.584z"/>
<path style="fill:#F9B428;" d="M167.548,190.547h-20.605c5.508,69.287,19.943,90.393,27.002,167.455
	c3.699,37.541,4.048,71.418,3.99,107.457h20.605C198.86,290.573,175.029,284.641,167.548,190.547z"/>
<path style="fill:#FC932B;" d="M177.852,500.635c0,6.276,5.088,11.364,11.364,11.364c15.411,0,125.23,0,138.809,0
	c6.277,0,11.365-5.088,11.365-11.364c0-11.88-0.073-23.551-0.104-35.176h-161.35C177.914,477.007,177.852,488.678,177.852,500.635z"
	/>
<path style="fill:#EF801D;" d="M198.457,500.635c0-11.957,0.063-23.629,0.084-35.176h-20.605c-0.021,10.835-0.084,23.9-0.084,35.176
	c0,6.277,5.088,11.365,11.364,11.365c3.254,0,10.727,0,20.605,0C203.544,512,198.457,506.912,198.457,500.635z"/>
<g>
	<path style="fill:#F9B428;" d="M293.197,290.57l-7.822-8.244c-2.937-3.096-2.809-7.986,0.287-10.924
		c3.097-2.937,7.987-2.808,10.924,0.287l7.822,8.244c2.937,3.096,2.809,7.986-0.287,10.924
		C301.024,293.793,296.134,293.666,293.197,290.57z"/>
	<path style="fill:#F9B428;" d="M231.429,320.038c-4.254,0-7.727-3.479-7.727-7.727c0-4.913,4.503-8.519,9.231-7.583
		c3.667,0.765,6.223,3.894,6.223,7.583C239.156,316.454,235.803,320.038,231.429,320.038z"/>
	<path style="fill:#F9B428;" d="M260.344,393.03c-12.82,0-23.249-10.43-23.249-23.249c0-12.82,10.43-23.25,23.249-23.25
		c12.82,0,23.25,10.43,23.25,23.25C283.594,382.6,273.164,393.03,260.344,393.03z M260.344,361.984
		c-4.299,0-7.796,3.497-7.796,7.796c0,4.299,3.497,7.796,7.796,7.796s7.796-3.497,7.796-7.796
		C268.14,365.482,264.643,361.984,260.344,361.984z"/>
</g>
<path style="fill:#FCE8C5;" d="M379.661,60.012c-8.374-21.559-30.347-33.806-52.3-30.758c-2.571,0.357-5.064-0.955-6.271-3.253
	C309.736,4.383,283.724-5.738,260.422,3.314c-10.206,3.964-18.309,10.996-23.677,19.628c-1.217,1.957-3.648,2.772-5.804,1.957
	c-9.159-3.464-19.58-3.69-29.427,0.135c-10.984,4.267-19.094,12.736-23.207,22.854c-1.348,3.315-4.619,5.468-8.181,5.13
	c-6.366-0.604-12.996,0.41-19.296,3.31c-16.932,7.794-25.655,27.238-20.206,45.063c2.65,8.671,8.071,15.589,14.925,20.215
	c0.874-5.1,5.306-8.986,10.656-8.986c2.932,0,6.584,0,29.223,0v115.385c0,9.54,7.094,17.815,16.59,18.736
	c10.924,1.059,20.21-7.594,20.21-18.312v-115.81h32.525v32.231c0,10.313,8.439,19.072,18.75,18.88
	c10-0.186,18.05-8.352,18.05-18.397v-32.714c29.704,0,65.98,0,69.485,0c2.062,0,3.982,0.587,5.622,1.588
	C381.425,101.008,387.256,79.562,379.661,60.012z"/>
<g>
	<path style="fill:#F7CE92;" d="M251.533,24.899c2.156,0.816,4.586,0.001,5.803-1.957c5.369-8.633,13.472-15.664,23.678-19.628
		c2.415-0.938,4.86-1.659,7.315-2.194c-9.007-1.96-18.669-1.395-27.907,2.194c-9.924,3.855-17.852,10.615-23.219,18.922
		C242.141,22.262,246.992,23.181,251.533,24.899z"/>
	<path style="fill:#F7CE92;" d="M151.216,101.39c-5.449-17.825,3.275-37.269,20.206-45.063c6.3-2.9,12.93-3.914,19.296-3.31
		c3.562,0.338,6.834-1.815,8.181-5.129c4.113-10.118,12.222-18.587,23.207-22.854c1.52-0.59,3.054-1.073,4.594-1.473
		c-8.061-2.092-16.829-1.773-25.186,1.473c-10.985,4.267-19.094,12.736-23.207,22.854c-1.348,3.315-4.619,5.467-8.181,5.129
		c-6.366-0.604-12.996,0.41-19.296,3.31c-16.932,7.794-25.655,27.238-20.206,45.063c2.65,8.671,8.071,15.589,14.925,20.215
		c0.875-5.1,5.306-8.986,10.656-8.986c0.199,0,0.402,0,0.613,0C154.411,109.32,152.49,105.56,151.216,101.39z"/>
	<path style="fill:#F7CE92;" d="M275.344,144.85v-20.992c0-6.207-5.032-11.239-11.239-11.239h-9.353v32.231
		c0,9.871,7.573,18.351,17.431,18.858c4.232,0.218,8.17-0.999,11.376-3.202C278.611,157.074,275.344,151.264,275.344,144.85z"/>
	<path style="fill:#F7CE92;" d="M206.02,228.004V124.912c0-6.789-5.503-12.292-12.292-12.292h-8.3v115.368
		c0,15.043,16.393,24.044,28.718,15.626C209.203,240.187,206.02,234.385,206.02,228.004z"/>
</g>
<g>
</g>
<g>
</g>
<g>
</g>
<g>
</g>
<g>
</g>
<g>
</g>
<g>
</g>
<g>
</g>
<g>
</g>
<g>
</g>
<g>
</g>
<g>
</g>
<g>
</g>
<g>
</g>
<g>
</g>
</svg>
